HIERARCHY
ROOT pelvis
{
  OFFSET 0 100 0
  CHANNELS 6 Xposition Yposition Zposition Zrotation Xrotation Yrotation
  JOINT pelvis_right_femur
  {
    OFFSET -10.78128 -3.44521 -0.5502486
    CHANNELS 3 Zrotation Xrotation Yrotation
    JOINT right_femur_tibia
    {
      OFFSET -0.8047443 -44.0398 -0.1307829
      CHANNELS 3 Zrotation Xrotation Yrotation
      JOINT right_tibia_foot
      {
        OFFSET 3.006224 -47.83518 -5
        CHANNELS 3 Zrotation Xrotation Yrotation
        End Site
        {
          OFFSET 0 -5 15
        }
      }
    }
  }
  JOINT pelvis_left_femur
  {
    OFFSET 10.78128 -3.44521 -0.5502486
    CHANNELS 3 Zrotation Xrotation Yrotation
    JOINT left_femur_tibia
    {
      OFFSET 0.8047443 -44.0398 -0.1307829
      CHANNELS 3 Zrotation Xrotation Yrotation
      JOINT left_tibia_foot
      {
        OFFSET -4.370144 -48.10324 -4.275266
        CHANNELS 3 Zrotation Xrotation Yrotation
        End Site
        {
          OFFSET 0 -5 15
        }
      }
    }
  }
  JOINT pelvis_spine1
  {
    OFFSET 0 6.468898 -3.129235
    CHANNELS 3 Zrotation Xrotation Yrotation
    JOINT spine1
    {
      OFFSET 0 23.15396 4.99043
      CHANNELS 3 Zrotation Xrotation Yrotation
      JOINT spine2
      {
        OFFSET 0 20.79997 -5.064912
        CHANNELS 3 Zrotation Xrotation Yrotation
        JOINT neck
        {
          OFFSET 0 14.38658 9.616178
          CHANNELS 3 Zrotation Xrotation Yrotation
          End Site
          {
            OFFSET 0 20 0
          }
        }
      }
      JOINT right_manubrium
      {
        OFFSET -5.722621 16.35077 3.967754
        CHANNELS 3 Zrotation Xrotation Yrotation
        JOINT right_clavicle
        {
          OFFSET -13.16364 1.694482 -4.693211
          CHANNELS 3 Zrotation Xrotation Yrotation
          JOINT right_humerus
          {
            OFFSET -28.5034 -0.3100689 -2.792744
            CHANNELS 3 Zrotation Xrotation Yrotation
            JOINT right_radius
            {
              OFFSET -25.15693 0.02248979 -1.271978
              CHANNELS 3 Zrotation Xrotation Yrotation
              End Site
              {
                OFFSET -15 0 0
              }
            }
          }
        }
      }
      JOINT left_manubrium
      {
        OFFSET 5.722621 16.35077 3.967754
        CHANNELS 3 Zrotation Xrotation Yrotation
        JOINT left_clavicle
        {
          OFFSET 13.16364 1.694482 -4.693211
          CHANNELS 3 Zrotation Xrotation Yrotation
          JOINT left_humerus
          {
            OFFSET 29.39168 -1.063119 -2.237045
            CHANNELS 3 Zrotation Xrotation Yrotation
            JOINT left_radius
            {
              OFFSET 24.59957 -0.9528479 0.9047498
              CHANNELS 3 Zrotation Xrotation Yrotation
              End Site
              {
                OFFSET 15 -0 -0
              }
            }
          }
        }
      }
    }
  }
}
MOTION
Frames: 13
Frame Time: 0.0416666666667
-640.0436 100.0499 2955.778 -5.139114 -6.409611 -37.82175 4.529032 16.11336 2.97342 -0 15.09192 -0 -3.64382 -15.19121 -2.972441 2.63729 -23.12832 -3.336078 -0 21.02633 -0 -4.625008 -6.152665 19.62788 1.456524 -1.49702 7.148496 0.6725089 14.40545 -8.359449 3.02799 22.0924 -0.7500597 -3.712835 -23.27547 7.262307 -6.479412 -30.00521 11.36405 98.37076 27.06544 -17.40562 -0 0 20.31626 -14.54014 8.5308 5.448098 -0.1581052 -19.26077 -4.913724 -85.82456 12.53748 28.50531 0 0 -14.78374 16.45835 16.81923 -8.658301
-643.2667 99.13154 2961.484 -4.762783 -5.917629 -38.37916 3.539222 17.92707 2.727508 -0 18.16118 -0 -3.114408 -14.7064 -2.388956 2.000086 -23.30695 -4.033828 -0 17.25853 -0 -4.651843 -6.019365 19.50242 1.555206 -1.609861 7.185233 0.6941276 14.73589 -8.301184 3.111218 21.99057 -1.162694 -4.035735 -22.99874 7.064007 -6.528826 -30.50121 11.43417 98.09991 26.36507 -16.86081 -0 0 20.91981 -14.90826 9.270014 6.016246 -0.4643872 -19.10086 -5.21797 -85.961 12.45143 29.27899 0 0 -14.53476 15.9295 17.06121 -7.939843
-646.5994 98.525 2967.521 -4.272527 -6.053413 -38.79445 2.084656 19.13457 2.588387 -0 22.91487 -0 -2.78865 -12.03541 -2.010029 0.3959648 -22.30395 -5.422288 -0 16.74558 -0 -4.504305 -6.398392 19.48001 1.625915 -1.689008 7.178554 0.7318983 14.94262 -8.266908 3.136287 21.9107 -1.355442 -4.174987 -22.82942 6.919734 -6.576896 -30.77071 11.5168 97.91771 25.72024 -16.51451 -0 0 21.23883 -15.29556 9.762581 6.437542 -0.6185722 -19.09345 -5.428072 -86.10294 12.34486 29.71913 0 0 -14.34088 15.4727 17.24078 -7.415332
-650.0001 98.41485 2973.762 -3.801119 -6.690063 -38.9269 0.5689675 19.1251 2.531282 -0 29.60971 -0 -2.690042 -7.414073 -1.889841 -1.671293 -20.15435 -7.033443 -0 18.29246 -0 -4.018046 -7.259006 19.53578 1.658292 -1.712384 7.138898 0.7790298 15.00766 -8.258306 3.105549 21.88334 -1.336858 -4.136993 -22.77299 6.832643 -6.640798 -30.81573 11.59685 97.85693 25.21328 -16.3839 -0 0 21.25616 -15.64223 9.913302 6.641241 -0.6426241 -19.20785 -5.541813 -86.2302 12.23527 29.82053 0 0 -14.15911 15.14345 17.33454 -7.161234
-653.3793 98.88134 2979.994 -3.526347 -7.496226 -38.66488 -0.487553 17.25138 2.443666 -0 37.80202 -0 -2.787952 -1.939447 -2.07114 -3.539109 -16.90052 -8.318021 -0 20.19348 -0 -3.211748 -8.398081 19.53715 1.642988 -1.66359 7.079298 0.8299527 14.91296 -8.277451 3.0223 21.92032 -1.134925 -3.944597 -22.82744 6.797053 -6.737201 -30.67029 11.65484 97.91633 24.91674 -16.43908 -0 0 21.02342 -15.90014 9.66984 6.588647 -0.5625298 -19.38973 -5.547719 -86.32386 12.13298 29.62678 0 0 -13.92924 14.97246 17.32299 -7.225014
-656.6259 99.84849 2985.986 -3.553982 -8.120514 -38.00297 -0.8039377 13.24872 2.244584 -0 46.03909 -0 -3.057928 2.872066 -2.552045 -4.748265 -12.70175 -9.00292 -0 21.05582 -0 -2.307365 -9.608291 19.33653 1.573078 -1.534448 7.012415 0.8804075 14.64232 -8.324756 2.888096 22.01388 -0.7840573 -3.626934 -22.98706 6.801038 -6.880031 -30.38898 11.6722 98.06635 24.87575 -16.61204 -0 0 20.6465 -16.05006 9.023793 6.282389 -0.4006649 -19.5764 -5.42547 -86.3759 12.0376 29.22066 0 0 -13.57517 14.95564 17.19272 -7.612253
-659.6547 101.0871 2991.578 -3.831549 -8.358109 -37.04901 -0.5110985 7.450765 1.96376 -0 52.19144 -0 -3.496196 5.880908 -3.234811 -5.226453 -7.90535 -9.185357 -0 20.38503 -0 -1.547143 -10.80464 18.88986 1.445181 -1.325555 6.946958 0.9265944 14.18423 -8.397397 2.701105 22.14327 -0.3091736 -3.206567 -23.24693 6.832015 -7.079492 -30.02472 11.63598 98.26633 25.09871 -16.8232 -0 0 20.24453 -16.10763 7.998982 5.760129 -0.1678679 -19.71841 -5.151672 -86.39295 11.93934 28.69419 0 0 -13.02429 15.05802 16.93767 -8.287834
-662.4469 102.2815 2996.738 -4.17181 -8.19958 -35.97228 0.01907881 0.6533399 1.640464 -0 54.35101 -0 -4.045585 6.788397 -3.945251 -5.195425 -3.013656 -9.123456 -0 18.55559 -0 -1.022553 -12.02984 18.26765 1.260056 -1.046638 6.88557 0.9642891 13.53554 -8.489882 2.457797 22.28204 0.2800548 -2.694877 -23.6045 6.882204 -7.340107 -29.61208 11.54044 98.47901 25.56203 -17.00711 -0 0 19.91347 -16.11363 6.643419 5.08029 0.1398464 -19.7924 -4.706307 -86.39063 11.82451 28.11885 0 0 -12.23684 15.23009 16.5615 -9.188914
-665.0565 103.1232 3001.547 -4.353692 -7.772221 -34.93943 0.4333291 -6.238226 1.202085 -0 51.66855 -0 -4.529863 5.975486 -4.535438 -4.973302 1.492692 -8.99665 -0 16.32148 -0 -0.7017734 -13.39717 17.54655 1.02379 -0.7189725 6.824611 0.9890658 12.70859 -8.596436 2.158755 22.40159 0.9809139 -2.098853 -24.05694 6.952158 -7.655247 -29.1643 11.38746 98.67501 26.21953 -17.12693 -0 0 19.70969 -16.1155 5.036962 4.311175 0.5380914 -19.80182 -4.078601 -86.38338 11.68248 27.53005 0 0 -11.23299 15.42748 16.08483 -10.23938
-667.587 103.3924 3006.151 -4.208342 -7.228951 -34.06218 0.5242652 -12.53014 0.5076576 -0 44.62135 -0 -4.735933 4.140252 -4.952118 -4.833853 5.360619 -8.83642 -0 14.32503 -0 -0.5302587 -15.01407 16.74602 0.7500517 -0.3795444 6.754699 0.9982246 11.74223 -8.713514 1.816265 22.47264 1.783135 -1.431981 -24.59486 7.051585 -7.998228 -28.67796 11.18923 98.82983 27.00465 -17.1813 -0 0 19.64369 -16.15042 3.310033 3.526754 1.047427 -19.77462 -3.275013 -86.37762 11.51143 26.92222 0 0 -10.11177 15.62592 15.55577 -11.35874
-670.164 103.0064 3010.717 -3.666357 -6.656871 -33.36936 0.2656734 -17.84141 -0.4896321 -0 34.74302 -0 -4.57519 2.097058 -5.218346 -4.932021 8.620638 -8.594423 -0 12.92526 -0 -0.4755345 -16.88015 15.87732 0.4620767 -0.08199473 6.662549 0.9938056 10.71139 -8.840675 1.458997 22.46793 2.657386 -0.7210453 -25.19397 7.19586 -8.31472 -28.13913 10.97204 98.91857 27.82777 -17.20674 -0 0 19.67545 -16.23324 1.654984 2.803953 1.685391 -19.76196 -2.330068 -86.37157 11.32146 26.2515 0 0 -9.056397 15.82731 15.05365 -12.46568
-672.9136 102.0299 3015.401 -2.797021 -6.075183 -32.81792 -0.1759887 -21.97754 -1.624023 -0 24.12465 -0 -4.144029 0.6137445 -5.398228 -5.262878 11.45873 -8.237976 -0 12.34183 -0 -0.5739025 -18.78897 14.98537 0.1922691 0.1130704 6.536202 0.9845702 9.725668 -8.978475 1.129618 22.36816 3.550935 -0.006906257 -25.80902 7.397608 -8.525829 -27.53294 10.77521 98.91582 28.58496 -17.27174 -0 0 19.71722 -16.34778 0.307448 2.214878 2.454457 -19.83034 -1.31586 -86.35917 11.1344 25.45426 0 0 -8.313029 16.05453 14.67172 -13.47923
-675.9463 100.6521 3020.331 -1.830459 -5.503139 -32.33644 -0.4670056 -24.77039 -2.532937 -0 14.91711 -0 -3.651547 0.1567521 -5.580965 -5.661501 14.01344 -7.799612 -0 12.88641 -0 -0.9483073 -20.29243 14.12783 -0.02229595 0.1608709 6.373348 0.9842651 8.910623 -9.123519 0.8745129 22.17208 4.391065 0.6577826 -26.37699 7.657058 -8.550581 -26.85913 10.64028 98.80873 29.18713 -17.45793 -0 0 19.65267 -16.44405 -0.5148314 1.81164 3.322861 -20.03815 -0.3427959 -86.33299 10.9817 24.48713 0 0 -8.130163 16.33623 14.47768 -14.32108
